<svg xmlns="http://www.w3.org/2000/svg" width="56" height="56" viewBox="0 0 56 56" fill="none">
  <circle cx="28" cy="28" r="26" fill="#FFFFFF" stroke="#2B2A28" stroke-width="2"/>
  <path d="M25 28 L42 28" stroke="#2B2A28" stroke-width="2.2" stroke-linecap="round"/>
  <path d="M38 28 L38 32" stroke="#2B2A28" stroke-width="2.2" stroke-linecap="round"/>
  <path d="M34 28 L34 33" stroke="#2B2A28" stroke-width="2.2" stroke-linecap="round"/>
  <g transform="translate(19 28)">
    <circle cx="0" cy="0" r="4" stroke="#D4502A" stroke-width="1.8" fill="none"/>
    <line x1="0" y1="-6" x2="0" y2="-9.5" stroke="#D4502A" stroke-width="1.4" stroke-linecap="round" transform="rotate(0)"/>
    <line x1="0" y1="-6" x2="0" y2="-7.8" stroke="#D4502A" stroke-width="1.4" stroke-linecap="round" transform="rotate(30)"/>
    <line x1="0" y1="-6" x2="0" y2="-9.5" stroke="#D4502A" stroke-width="1.4" stroke-linecap="round" transform="rotate(60)"/>
    <line x1="0" y1="-6" x2="0" y2="-7.8" stroke="#D4502A" stroke-width="1.4" stroke-linecap="round" transform="rotate(90)"/>
    <line x1="0" y1="-6" x2="0" y2="-9.5" stroke="#D4502A" stroke-width="1.4" stroke-linecap="round" transform="rotate(120)"/>
    <line x1="0" y1="-6" x2="0" y2="-7.8" stroke="#D4502A" stroke-width="1.4" stroke-linecap="round" transform="rotate(150)"/>
    <line x1="0" y1="-6" x2="0" y2="-9.5" stroke="#D4502A" stroke-width="1.4" stroke-linecap="round" transform="rotate(180)"/>
    <line x1="0" y1="-6" x2="0" y2="-7.8" stroke="#D4502A" stroke-width="1.4" stroke-linecap="round" transform="rotate(210)"/>
    <line x1="0" y1="-6" x2="0" y2="-9.5" stroke="#D4502A" stroke-width="1.4" stroke-linecap="round" transform="rotate(240)"/>
    <line x1="0" y1="-6" x2="0" y2="-7.8" stroke="#D4502A" stroke-width="1.4" stroke-linecap="round" transform="rotate(270)"/>
    <line x1="0" y1="-6" x2="0" y2="-9.5" stroke="#D4502A" stroke-width="1.4" stroke-linecap="round" transform="rotate(300)"/>
    <line x1="0" y1="-6" x2="0" y2="-7.8" stroke="#D4502A" stroke-width="1.4" stroke-linecap="round" transform="rotate(330)"/>
  </g>
</svg>